<svg xmlns="http://www.w3.org/2000/svg" width="145" height="145" fill="none"><path fill="#F4DC49" d="M0 36.25c0-6.674 5.41-12.083 12.083-12.083H50.93c4.04 0 7.813 2.019 10.054 5.38l4.909 7.364a12.083 12.083 0 0 0 10.054 5.38h56.971c6.673 0 12.083 5.41 12.083 12.084v78.542c0 6.673-5.41 12.083-12.083 12.083H12.083C5.41 145 0 139.59 0 132.917V36.25Z"/><path fill="#F4DC49" fill-rule="evenodd" d="M50.929 27.188H12.083a9.062 9.062 0 0 0-9.062 9.062v96.667a9.062 9.062 0 0 0 9.062 9.062h120.834a9.062 9.062 0 0 0 9.062-9.062V54.375a9.062 9.062 0 0 0-9.062-9.063H75.946c-5.05 0-9.766-2.523-12.567-6.725l-4.91-7.364a9.062 9.062 0 0 0-7.54-4.035Zm-38.846-3.021C5.41 24.167 0 29.577 0 36.25v96.667C0 139.59 5.41 145 12.083 145h120.834c6.673 0 12.083-5.41 12.083-12.083V54.375c0-6.673-5.41-12.083-12.083-12.083H75.946c-4.04 0-7.813-2.02-10.054-5.381l-4.909-7.364a12.084 12.084 0 0 0-10.054-5.38H12.083Z" clip-rule="evenodd"/><path fill="#FDEFB2" d="M50.93 27.188H12.082a9.062 9.062 0 0 0-9.062 9.062v96.667a9.062 9.062 0 0 0 9.062 9.062h120.834a9.062 9.062 0 0 0 9.062-9.062V54.375a9.062 9.062 0 0 0-9.062-9.063H75.946c-5.05 0-9.766-2.523-12.567-6.725l-4.91-7.364a9.063 9.063 0 0 0-7.54-4.035Z"/></svg>